<svg width="994" height="941.9999999999999" xmlns="http://www.w3.org/2000/svg">
 <!-- Created with SVG Editor - http://github.com/mzalive/SVG Editor/ -->
 <g>
  <title>Layer 1</title>
  <path id="svg_1" d="m-733.494201,-25.702667l0,0c0,-0.411452 0.333548,-0.745 0.745,-0.745l0,0c0.197586,0 0.38708,0.078491 0.526794,0.218205c0.139715,0.139715 0.218205,0.329208 0.218205,0.526795l0,0c0,0.411452 -0.333548,0.745 -0.745,0.745l0,0c-0.411452,0 -0.745,-0.333548 -0.745,-0.745zm0.745,-0.745l0,1.49m-0.745,-0.745l1.49,0" fill-opacity="null" stroke-opacity="null" stroke-width="1.5" stroke="#000" fill="none"/>
  <line stroke="#000" stroke-linecap="null" stroke-linejoin="null" id="svg_6" y2="274.330382" x2="159.494989" y1="117.661367" x1="359.497988" fill-opacity="null" stroke-opacity="null" stroke-width="1.5" fill="none"/>
  <line stroke-linecap="null" stroke-linejoin="null" id="svg_7" y2="259.330158" x2="561.16768" y1="120.994749" x1="357.831296" fill-opacity="null" stroke-opacity="null" stroke-width="1.5" stroke="#000" fill="none"/>
  <line stroke-linecap="null" stroke-linejoin="null" id="svg_8" y2="277.663766" x2="332.830921" y1="275.997074" x1="164.495062" fill-opacity="null" stroke-opacity="null" stroke-width="1.5" stroke="#000" fill="none"/>
  <line stroke-linecap="null" stroke-linejoin="null" id="svg_9" y2="270.996999" x2="404.498663" y1="259.330158" x1="556.167605" fill-opacity="null" stroke-opacity="null" stroke-width="1.5" stroke="#000" fill="none"/>
  <line stroke-linecap="null" stroke-linejoin="null" id="svg_11" y2="419.332558" x2="139.494687" y1="277.663766" x1="327.830846" fill-opacity="null" stroke-opacity="null" stroke-width="1.5" stroke="#000" fill="none"/>
  <line stroke-linecap="null" stroke-linejoin="null" id="svg_12" y2="430.9994" x2="599.501589" y1="269.330308" x1="407.832046" fill-opacity="null" stroke-opacity="null" stroke-width="1.5" stroke="#000" fill="none"/>
  <line stroke-linecap="null" stroke-linejoin="null" id="svg_13" y2="460.99985" x2="332.830921" y1="420.99925" x1="142.828071" fill-opacity="null" stroke-opacity="null" stroke-width="1.5" stroke="#000" fill="none"/>
  <line stroke-linecap="null" stroke-linejoin="null" id="svg_14" y2="471" x2="407.832046" y1="429.332708" x1="597.834897" fill-opacity="null" stroke-opacity="null" stroke-width="1.5" stroke="#000" fill="none"/>
  <line stroke-linecap="null" stroke-linejoin="null" id="svg_15" y2="612.668792" x2="111.160929" y1="459.333158" x1="336.164305" fill-opacity="null" stroke-opacity="null" stroke-width="1.5" stroke="#000" fill="none"/>
  <line stroke-linecap="null" stroke-linejoin="null" id="svg_16" y2="616.002175" x2="607.835047" y1="474.333383" x1="411.16543" fill-opacity="null" stroke-opacity="null" stroke-width="1.5" stroke="#000" fill="none"/>
  <line stroke-linecap="null" stroke-linejoin="null" id="svg_17" y2="607.668717" x2="596.168205" y1="609.335409" x1="121.161079" fill-opacity="null" stroke-opacity="null" stroke-width="1.5" stroke="#000" fill="none"/>
  <line stroke-linecap="null" stroke-linejoin="null" id="svg_18" y2="764.337734" x2="282.830171" y1="614.335484" x1="322.830771" fill-opacity="null" stroke-opacity="null" stroke-width="1.5" stroke="#000" fill="none"/>
  <line stroke-linecap="null" stroke-linejoin="null" id="svg_19" y2="759.337659" x2="412.832121" y1="617.668867" x1="399.498588" fill-opacity="null" stroke-opacity="null" stroke-width="1.5" stroke="#000" fill="none"/>
  <line stroke-linecap="null" stroke-linejoin="null" id="svg_20" y2="756.004276" x2="417.832196" y1="762.671043" x1="279.496788" fill-opacity="null" stroke-opacity="null" stroke-width="1.5" stroke="#000" fill="none"/>
 </g>
</svg>